PathFileType	4	(X/Y/Z)	Patient4_TMGait_0pt5_01_left_38.trc.trc
DataRate	CameraRate	NumFrames	NumMarkers	Units	OrigDataRate	OrigDataStartFrame	OrigNumFrames
73.684210526316	73.684210526316	4	33	mm	73.684210526316	18	       141
Frame#	Time	L.ASIS			Sacral			L.Shoulder			Chest			R.Shoulder			Neck			R.ASIS			R.Thigh.Superior			R.Thigh.Lateral			R.Thigh.Inferior			R.Patella			L.Thigh.Superior			L.Thigh.Lateral			L.Thigh.Inferior			L.Patella			L.Shank.Superior			L.Shank.Lateral			L.Shank.Inferior			R.Shank.Superior			R.Shank.Lateral			R.Shank.Inferior			R.Heel			R.Midfoot.Superior			R.Midfoot.Lateral			R.Toe			L.Heel			L.Midfoot.Lateral			L.Midfoot.Superior			L.Toe			L.Elbow			L.Wrist			R.Elbow			R.Wrist			
		X1	Y1	Z1	X2	Y2	Z2	X3	Y3	Z3	X4	Y4	Z4	X5	Y5	Z5	X6	Y6	Z6	X7	Y7	Z7	X8	Y8	Z8	X9	Y9	Z9	X10	Y10	Z10	X11	Y11	Z11	X12	Y12	Z12	X13	Y13	Z13	X14	Y14	Z14	X15	Y15	Z15	X16	Y16	Z16	X17	Y17	Z17	X18	Y18	Z18	X19	Y19	Z19	X20	Y20	Z20	X21	Y21	Z21	X22	Y22	Z22	X23	Y23	Z23	X24	Y24	Z24	X25	Y25	Z25	X26	Y26	Z26	X27	Y27	Z27	X28	Y28	Z28	X29	Y29	Z29	X30	Y30	Z30	X31	Y31	Z31	X32	Y32	Z32	X33	Y33	Z33	

18	50.820714285714	791.600405611002	962.754509289819	357.848563714750	599.937815544452	1008.104960727648	541.269359515929	754.117645784345	1435.436548317937	349.251028341632	878.138881079295	1358.478459661688	491.370750208235	824.030800929468	1431.614459392149	677.630744338537	778.689250246083	1493.385869278110	499.755816189080	835.113410108951	935.803390854557	629.138345378335	840.736422805811	725.983678965621	597.511622788938	745.608872996455	628.908993222085	663.044516922729	804.034110962847	566.718851834128	578.152176829855	788.159469044940	480.913461855381	582.726993303172	867.355248399560	776.549347893086	388.895439391187	823.197583969157	651.848960991446	309.486431699243	920.309509904794	589.118852854360	377.938404669067	949.363524894720	526.192431650986	372.896004952692	936.328739050412	455.533406723841	359.745574207173	878.741239114955	323.301782490095	303.792340641812	967.934080888265	227.489939082382	362.238891307087	752.370164144171	395.542669467798	589.283866954312	672.521805480820	298.579191143005	649.803914088271	703.623567247268	201.635058453124	584.728492692113	555.418936580958	43.242615264699	549.948086478968	725.836695517544	96.267299440604	591.549614630362	635.810307554795	36.143334703192	627.881219436733	844.198300497057	42.328128257005	624.873639891779	893.809640183001	37.495706771728	395.231253920814	969.700888016301	52.215912483529	317.895203751156	1031.214844025288	136.969153444501	341.949400910441	1168.216145305696	123.213165346842	320.761948633131	625.755986225213	1099.511765444979	257.532022255156	599.749485996438	841.114296966939	265.806534649467	956.369326698611	1123.598664200385	789.306645541539	1185.622433087031	1188.844807962096	707.620312383972	
19	50.834285714286	791.978508808623	961.780977483482	356.757504148700	600.850408009924	1007.048841999711	540.773174862725	753.460167263625	1434.631809024307	348.231109660545	877.967571807375	1357.867209028690	489.971147289814	824.175630976787	1430.893371869915	676.281146317333	778.347212132489	1492.541595269285	498.639221856919	835.954472072542	934.964373323375	628.052887431603	840.210179858533	724.815780973974	596.653965302901	744.314256356705	628.167103519119	662.316839861104	802.164184283496	565.551816592510	577.513874878454	785.461408001647	479.698744270503	582.037238890345	867.783651112887	775.395918669944	387.502668907620	822.126060397179	650.076323070997	309.465344040865	919.933963041233	587.678398281688	376.804324285637	948.715766315062	525.018422463401	372.428213113852	936.194281993662	454.379758315009	359.733215572721	879.202263771465	321.527727253999	304.986300507133	969.531708271551	226.716852601323	363.276708458746	748.940376140079	394.641827840214	588.731356772196	668.197359438725	298.445482730636	649.444757974468	698.088419726776	201.112011888707	584.403317065084	548.622814944140	43.330401261358	550.005728293994	719.071791576373	96.189703870284	591.514014746302	629.003631245077	36.125262735974	627.865980873348	837.409440654429	42.088576433190	624.936405175502	896.776980996399	37.192950906895	397.785479595481	972.196657385500	51.316467416464	320.014351327190	1033.772226366242	136.006897341730	343.251515536861	1170.516602846816	122.029009159517	321.596725480402	620.994715343479	1100.606456380778	257.643589507806	591.258703229289	842.591010950515	267.129894422260	961.782507494852	1125.624951397000	786.439774585952	1186.776745316108	1200.823070092299	702.747919332450	
20	50.847857142857	792.763713468736	960.701747936835	355.564903502790	601.999552750969	1005.862265751918	539.998976667936	752.742763935381	1433.754405608690	347.053852163047	877.783438571460	1357.285481117240	488.426271763156	824.214027595287	1430.128909560812	674.793672404677	777.901520436254	1491.637361107582	497.380343139537	837.000927017147	934.097810190053	626.893426242757	839.761309891895	723.581500214437	595.779277387931	742.990935992424	627.434819753570	661.556983051315	800.291414773070	564.328418379505	576.887650123132	782.722539724577	478.464029270898	581.333890437535	868.949222515378	774.343894427498	385.961168549788	821.553598147790	648.184661933029	309.551450113343	920.202681382143	586.241526655703	375.558513451842	948.535982590785	523.479122554481	371.888725135290	936.065850471541	452.665915501794	359.782874165736	878.651996755729	319.709331425910	306.222363606282	969.275796854471	225.216292735709	364.359869734683	745.470988557012	393.747144014353	588.173801757841	663.832618667558	298.339018506711	649.073961492154	692.535659133380	200.613456954351	584.091429686522	541.828521766710	43.439502440093	550.069341512305	712.317128084664	96.107054667931	591.490255822332	622.202629428660	36.105179123105	627.850823094157	830.627698805009	41.828713710765	625.007773020434	896.226453583085	37.120091201763	400.217390450734	971.281008567472	50.007644596169	322.024921628553	1033.767418087282	133.809626396570	344.631848431044	1170.016065973952	118.178556105439	322.462146321046	616.714308072673	1101.489794092002	257.525629748003	584.111378733533	843.772191595028	268.073108691107	966.641502958710	1127.472349500259	783.606802155525	1187.334413975817	1211.570543682688	698.122569004682	
21	50.861428571429	793.966984956540	959.503449394132	354.289926284417	603.363970936322	1004.568245198715	538.923140889479	751.996013060299	1432.801912449392	345.711045489850	877.605950981839	1356.730064185918	486.738035683255	824.157791452903	1429.318878362048	673.172118618983	777.371984436215	1490.675447021203	495.973078234702	838.243560705864	933.193929850650	625.680548215031	839.394009208064	722.279457884309	594.919990758850	741.628108685260	626.720434959439	660.768046834559	798.406235653872	563.057400448075	576.276485763353	779.938031677427	477.215402314832	580.616647009963	870.724013547273	773.286320517929	384.333056113432	821.421700454319	646.178247728567	309.672995547318	920.961878898112	584.747926304991	374.261440764366	948.676420609019	521.571434590961	371.327787256196	935.910753038741	450.442140046324	359.885598224031	877.298360618606	317.776181197356	307.408720810029	967.514215610239	223.023184337709	365.452052217295	741.952905491919	392.863636177788	587.608495179442	659.427204693952	298.267982601976	648.696766240769	686.963666379175	200.152141121081	583.797672546504	535.036981115728	43.588246968769	550.147348030647	705.573694164287	96.024947950238	591.479088660843	615.410585664786	36.096047857883	627.842187464013	823.853787353200	41.544024349204	625.086251845451	892.753917436153	37.129909923065	402.381055844758	967.606542719096	48.287438320546	323.846604956780	1031.707751291872	130.486661052868	346.095915389582	1167.294417577445	111.991479471592	323.482599998459	612.956744084514	1102.122329626361	257.163460897985	578.300715953726	844.606048931447	268.612432471391	970.930535327599	1129.089581317504	780.848647546300	1187.414390073029	1221.026430858327	693.774066099338	
